<svg width="99" height="119" viewBox="0 0 99 119" fill="none" xmlns="http://www.w3.org/2000/svg">
<path d="M13.0039 20.011C6.96354 14.0516 6.13429 10.0727 8.50387 2.01098C8.50387 2.01098 28.3908 2.13142 35.0039 2.01098C41.617 1.89054 70.8025 2.59757 79.5039 12.511C109.01 49.7417 99.6385 67.0303 69.5039 96.011M13.0039 20.011C30.8097 19.2651 36.7642 23.6567 41.5039 38.511V67.511C41.5039 67.511 48.8813 51.2076 60.5039 55.011C67.291 64.7573 64.4532 67.8726 54.0039 78.011L69.5039 96.011M13.0039 20.011C8.17808 27.2187 8.66906 33.8689 9.50387 46.511C9.50387 46.511 1.80544 57.7504 2.00377 60.011C2.2021 62.2716 8.69565 64.296 8.50377 65.011C6.41708 88.8643 8.99826 98.2034 28.5039 96.011V116.511M69.5039 96.011V116.511M16.5039 82.011C32.6391 80.0901 38.7899 83.9848 37.5039 112.011M16.5039 73.511C44.6881 73.7396 52.8301 82.0913 53.0039 112.011" stroke="white" stroke-width="3" stroke-linecap="round"/>
</svg>
